<svg width="18" height="21" viewBox="0 0 18 21" fill="none" xmlns="http://www.w3.org/2000/svg">
<path d="M7.84411 2.78125C7.01273 2.78125 6.3388 3.4555 6.3388 4.28693C6.3388 5.11837 7.01273 5.79234 7.84411 5.79234C8.67521 5.79234 9.34942 5.11837 9.34942 4.28693C9.34942 3.4555 8.67521 2.78125 7.84411 2.78125ZM7.03322 5.89227C6.14682 5.89423 5.98318 6.45227 5.98318 6.90897V12.281C5.98318 12.7428 6.35508 13.1161 6.81653 13.1144L10.633 13.0976C10.633 13.0976 11.9469 15.0875 12.6051 16.0809C12.8024 16.3787 13.0648 16.642 13.4437 16.642C13.9436 16.642 14.404 16.2342 14.3492 15.7365C14.3285 15.5414 14.2844 15.3564 14.1662 15.181C13.5793 14.306 12.4164 12.4135 11.7773 11.7031C11.6151 11.5226 11.3908 11.3909 11.1275 11.3918L7.9721 11.403V8.059L10.2221 9.61465C10.5465 9.83837 10.9872 9.75557 11.2106 9.43136C11.4346 9.10686 11.3521 8.66644 11.0273 8.44244C11.0273 8.44244 8.68784 6.82841 7.51655 6.02027C7.39474 5.93606 7.16963 5.89227 7.03322 5.89227ZM15.7327 7.39795C15.6785 7.39795 15.6241 7.41732 15.5826 7.45886L12.7771 10.2645H8.79956C8.68223 10.2645 8.58876 10.3582 8.58876 10.4756V10.5533C8.58876 10.6709 8.68223 10.7644 8.79956 10.7644H12.8883C12.9517 10.7644 13.0132 10.7397 13.0491 10.7035L15.9379 7.81451C16.0207 7.73143 16.0207 7.59753 15.9379 7.51444L15.8823 7.45886C15.8413 7.4176 15.7863 7.39795 15.7327 7.39795ZM5.5832 8.86462C3.52215 9.48413 2 11.4047 2 13.7143C2 16.5342 4.27943 18.7812 7.02199 18.7812C9.12318 18.7812 10.9527 17.4656 11.694 15.5812L10.9386 14.4422C10.5962 16.2516 8.998 17.6481 7.02227 17.6481C4.78943 17.6481 3.03376 15.862 3.03376 13.7143C3.03376 12.0582 4.08211 10.6193 5.58349 10.0478V8.86462H5.5832Z" fill="black" fill-opacity="0.5"/>
</svg>
